<svg width="24" height="25" viewBox="0 0 24 25" fill="none" xmlns="http://www.w3.org/2000/svg">
<path d="M8.29347 23.4667V19.6445C8.29347 18.6688 9.09021 17.8779 10.073 17.8779H13.6658C14.1377 17.8779 14.5904 18.064 14.9241 18.3953C15.2578 18.7266 15.4453 19.176 15.4453 19.6445V23.4667C15.4423 23.8723 15.6026 24.2623 15.8905 24.5502C16.1783 24.8381 16.5701 25 16.9787 25H19.4298C20.5745 25.0029 21.6734 24.5535 22.4839 23.751C23.2945 22.9484 23.75 21.8587 23.75 20.7223V9.83357C23.75 8.91557 23.3401 8.0448 22.6308 7.45583L14.2925 0.844836C12.8421 -0.314298 10.7639 -0.276872 9.35673 0.933723L1.20876 7.45583C0.465926 8.02744 0.0219404 8.90079 0 9.83357V20.7112C0 23.0798 1.93423 25 4.32021 25H6.71536C7.56403 25 8.25374 24.3203 8.25989 23.4778L8.29347 23.4667Z" fill="#444444"/>
</svg>
