<svg width="30" height="30" viewBox="0 0 30 30" fill="none" xmlns="http://www.w3.org/2000/svg">
<path d="M24.4405 2.42462e-05C23.7106 -0.00213874 22.9875 0.140437 22.3131 0.419503C21.6387 0.698569 21.0263 1.10859 20.5114 1.62584L10.4372 11.7049C9.57992 12.5566 8.90028 13.57 8.43764 14.6864C7.97499 15.8027 7.73853 16.9998 7.74198 18.2082V22.2582H11.792C12.9996 22.261 14.1957 22.0242 15.3112 21.5616C16.4267 21.099 17.4393 20.4197 18.2904 19.563L28.3743 9.48878C29.1513 8.71097 29.6801 7.72028 29.8941 6.64195C30.1081 5.56361 29.9976 4.44604 29.5766 3.4305C29.1556 2.41495 28.4429 1.54702 27.5287 0.936422C26.6145 0.325821 25.5398 -4.16636e-05 24.4405 2.42462e-05V2.42462e-05ZM26.3179 7.43232L16.2436 17.5114C15.6605 18.0979 14.9667 18.5628 14.2026 18.8793C13.4384 19.1957 12.6191 19.3574 11.792 19.355H10.6452V18.2082C10.6434 17.3819 10.8054 16.5635 11.1218 15.8002C11.4383 15.037 11.9029 14.344 12.4888 13.7614L22.5679 3.6823C23.071 3.21057 23.7379 2.95303 24.4276 2.96414C25.1172 2.97526 25.7755 3.25416 26.2632 3.74186C26.7509 4.22956 27.0298 4.88783 27.0409 5.57745C27.052 6.26708 26.7945 6.93399 26.3227 7.43716L26.3179 7.43232Z" fill="#444444"/>
<path d="M5.32261 30H22.7421C24.1537 30 25.5075 29.4392 26.5057 28.441C27.5039 27.4428 28.0647 26.089 28.0647 24.6774V16.9354H25.1614V24.6774C25.1614 25.319 24.9065 25.9344 24.4528 26.3881C23.9991 26.8418 23.3837 27.0967 22.7421 27.0967H5.32261C4.68095 27.0967 4.06558 26.8418 3.61186 26.3881C3.15814 25.9344 2.90324 25.319 2.90324 24.6774V7.25791C2.90324 6.61625 3.15814 6.00088 3.61186 5.54716C4.06558 5.09344 4.68095 4.83854 5.32261 4.83854H13.0646V1.9353H5.32261C3.91096 1.9353 2.55714 2.49608 1.55896 3.49426C0.560773 4.49244 0 5.84627 0 7.25791V24.6774C0 26.089 0.560773 27.4428 1.55896 28.441C2.55714 29.4392 3.91096 30 5.32261 30V30Z" fill="#444444"/>
</svg>
