<svg width="25" height="25" viewBox="0 0 25 25" fill="none" xmlns="http://www.w3.org/2000/svg">
<path d="M18.0556 0H2.77778C1.25 0 0 1.25 0 2.77778V22.2222C0 23.75 1.25 25 2.77778 25H22.2222C23.75 25 25 23.75 25 22.2222V6.94444L18.0556 0ZM6.94444 5.55556H11.1111C11.875 5.55556 12.5 6.18056 12.5 6.94444C12.5 7.70833 11.875 8.33333 11.1111 8.33333H6.94444C6.18056 8.33333 5.55556 7.70833 5.55556 6.94444C5.55556 6.18056 6.18056 5.55556 6.94444 5.55556ZM18.0556 19.4444H6.94444C6.18056 19.4444 5.55556 18.8194 5.55556 18.0556C5.55556 17.2917 6.18056 16.6667 6.94444 16.6667H18.0556C18.8194 16.6667 19.4444 17.2917 19.4444 18.0556C19.4444 18.8194 18.8194 19.4444 18.0556 19.4444ZM18.0556 13.8889H6.94444C6.18056 13.8889 5.55556 13.2639 5.55556 12.5C5.55556 11.7361 6.18056 11.1111 6.94444 11.1111H18.0556C18.8194 11.1111 19.4444 11.7361 19.4444 12.5C19.4444 13.2639 18.8194 13.8889 18.0556 13.8889ZM16.6667 6.94444V2.77778L22.2222 8.33333H18.0556C17.2917 8.33333 16.6667 7.70833 16.6667 6.94444Z" fill="#4F4F4F"/>
</svg>
