<svg width="25" height="25" viewBox="0 0 25 25" fill="none" xmlns="http://www.w3.org/2000/svg">
<path d="M21.875 0H9.375C8.5462 0 7.75134 0.32924 7.16529 0.915291C6.57924 1.50134 6.25 2.2962 6.25 3.125V20.3125C6.25 20.7269 6.08538 21.1243 5.79235 21.4174C5.49933 21.7104 5.1019 21.875 4.6875 21.875C4.2731 21.875 3.87567 21.7104 3.58265 21.4174C3.28962 21.1243 3.125 20.7269 3.125 20.3125V10.9375C3.125 10.5231 2.96038 10.1257 2.66735 9.83265C2.37433 9.53962 1.9769 9.375 1.5625 9.375C1.1481 9.375 0.750671 9.53962 0.457646 9.83265C0.16462 10.1257 0 10.5231 0 10.9375V20.3125C0 21.5557 0.49386 22.748 1.37294 23.6271C2.25201 24.5061 3.4443 25 4.6875 25H21.0938C22.1298 25 23.1233 24.5884 23.8559 23.8559C24.5884 23.1233 25 22.1298 25 21.0938V3.125C25 2.2962 24.6708 1.50134 24.0847 0.915291C23.4987 0.32924 22.7038 0 21.875 0ZM17.5781 20.3125H10.1562V17.9688H17.5781V20.3125ZM21.0938 15.625H10.1562V13.2812H21.0938V15.625ZM17.5781 10.9375H10.1562V8.59375H17.5781V10.9375ZM21.0938 6.25H10.1562V3.90625H21.0938V6.25Z" fill="#252427"/>
</svg>
