<svg width="34" height="25" viewBox="0 0 34 25" fill="none" xmlns="http://www.w3.org/2000/svg">
<path d="M13.5401 1.04159L5.20772 9.37541C4.92929 9.65384 4.77313 10.0266 4.77755 10.417L3.736 17.0979L0 20.8339L4.16618 25L14.5831 14.5831C15.1562 14.0086 15.1591 13.0761 14.5831 12.5C14.0041 11.9226 13.0731 11.927 12.4985 12.5L9.46523 15.5348L9.87625 10.8132L15.7631 2.96999C16.2242 2.35125 16.127 1.45997 15.548 0.972348C14.9632 0.465571 14.0852 0.497981 13.5401 1.04159Z" fill="#4F4F4F"/>
<path d="M29.1661 0L18.7492 10.4169C18.1747 10.99 18.1732 11.924 18.7492 12.5C19.3282 13.0775 20.2592 13.0745 20.8323 12.5L23.8671 9.46671L23.456 14.1868L17.5707 22.0301C17.1096 22.6503 17.2068 23.5401 17.7857 24.0277C18.3691 24.5345 19.2486 24.5021 19.7922 23.957L28.1246 15.6246C28.403 15.3477 28.5592 14.975 28.5562 14.5831L29.5978 7.90218L33.3323 4.16618L29.1661 0Z" fill="#4F4F4F"/>
</svg>
