<svg width="34" height="25" viewBox="0 0 34 25" fill="none" xmlns="http://www.w3.org/2000/svg">
<path d="M13.9659 1.04076L5.6335 9.37459C5.35507 9.65302 5.19891 10.0257 5.20333 10.4161L4.16179 17.097L0.425781 20.833L4.59196 24.9992L15.0089 14.5823C15.5819 14.0078 15.5849 13.0752 15.0089 12.4992C14.4299 11.9217 13.4989 11.9262 12.9243 12.4992L9.89102 15.534L10.302 10.8124L16.1889 2.96917C16.65 2.35043 16.5528 1.45915 15.9738 0.971524C15.389 0.464747 14.5109 0.497157 13.9659 1.04076Z" fill="#252427"/>
<path d="M29.5937 0L19.1768 10.4169C18.6023 10.99 18.6008 11.924 19.1768 12.5C19.7558 13.0775 20.6868 13.0745 21.2599 12.5L24.2947 9.46671L23.8837 14.1868L17.9983 22.0301C17.5372 22.6503 17.6344 23.5401 18.2134 24.0277C18.7967 24.5345 19.6762 24.5021 20.2198 23.957L28.5522 15.6246C28.8306 15.3477 28.9868 14.975 28.9838 14.5831L30.0254 7.90218L33.7599 4.16618L29.5937 0Z" fill="#252427"/>
</svg>
