<svg width="48" height="63" viewBox="0 0 48 63" fill="none" xmlns="http://www.w3.org/2000/svg">
<path d="M25.1819 62.5705C24.4972 63.1432 23.5028 63.1432 22.8181 62.5705C7.66631 49.8976 0 37.0734 0 24.0882C0 10.7847 10.7452 0 24 0C37.2548 0 48 10.7847 48 24.0882C48 37.0734 40.3337 49.8976 25.1819 62.5705Z" fill="black"/>
<path d="M24.3586 25.1972C21.8297 25.1972 19.4044 26.2018 17.6163 27.99C15.8281 29.7781 14.8235 32.2034 14.8235 34.7323V37.0579C14.8235 37.7775 15.1093 38.4676 15.6182 38.9765C16.127 39.4853 16.8171 39.7712 17.5367 39.7712H17.7693C18.024 40.6961 18.5753 41.5118 19.3386 42.093C20.1019 42.6742 21.0348 42.9888 21.9942 42.9883H26.723C27.6823 42.9888 28.6153 42.6742 29.3786 42.093C30.1419 41.5118 30.6932 40.6961 30.9479 39.7712H31.2192C31.9388 39.7712 32.6289 39.4853 33.1378 38.9765C33.6466 38.4676 33.9324 37.7775 33.9324 37.0579V34.7323C33.9222 32.1999 32.909 29.7747 31.1147 27.9876C29.3203 26.2005 26.891 25.1972 24.3586 25.1972Z" fill="white"/>
<path d="M29.9013 18.1428C29.9013 17.0465 29.5762 15.9749 28.9672 15.0634C28.3581 14.1519 27.4925 13.4414 26.4797 13.0219C25.4669 12.6024 24.3524 12.4926 23.2772 12.7065C22.202 12.9204 21.2144 13.4483 20.4392 14.2234C19.6641 14.9986 19.1362 15.9862 18.9223 17.0614C18.7084 18.1366 18.8182 19.2511 19.2377 20.2639C19.6572 21.2767 20.3677 22.1424 21.2792 22.7514C22.1907 23.3604 23.2623 23.6855 24.3586 23.6855C25.8286 23.6855 27.2384 23.1016 28.2779 22.0621C29.3174 21.0226 29.9013 19.6128 29.9013 18.1428Z" fill="white"/>
</svg>
