<svg width="21" height="27" viewBox="0 0 21 27" fill="none" xmlns="http://www.w3.org/2000/svg">
<path d="M8.36152 16.384C8.60782 16.9421 8.76756 17.5559 8.76756 18.0935V18.9795C8.76756 19.776 9.41605 20.4247 10.2125 20.4247C11.009 20.4247 11.6574 19.776 11.6574 18.9795V18.0935C11.6574 17.5557 11.8169 16.9416 12.0628 16.383C12.3084 15.8251 12.6531 15.2934 13.0491 14.9302M8.36152 16.384L6.60089 12.8428C6.60092 10.8346 8.21671 9.20565 10.1952 9.20565C12.1899 9.20565 13.8152 10.8365 13.8152 12.8429C13.8152 14.19 13.0781 14.9026 13.0491 14.9302M8.36152 16.384C8.11542 15.8264 7.76999 15.295 7.37326 14.9324M8.36152 16.384L7.37326 14.9324M13.0491 14.9302C13.0496 14.9297 13.0501 14.9292 13.0507 14.9288L13.2533 15.15L13.0482 14.931C13.0483 14.931 13.0486 14.9307 13.0491 14.9302ZM7.37326 14.9324C7.34653 14.9074 6.60118 14.2002 6.60089 12.8429L7.37326 14.9324ZM2.97482 17.0602L2.97455 17.0604C1.51862 18.0446 0.7 19.3106 0.7 20.7327C0.7 22.3606 1.81446 23.7592 3.52022 24.7344C5.23194 25.713 7.58889 26.3 10.2128 26.3C12.8367 26.3 15.1937 25.713 16.9054 24.7344C18.6111 23.7592 19.7256 22.3606 19.7256 20.7327C19.7256 19.3106 18.9067 18.0443 17.4507 17.0604L17.4506 17.0603C17.1088 16.8294 16.6451 16.9196 16.4143 17.2608L16.4142 17.261C16.1835 17.6025 16.2729 18.0664 16.6148 18.2974C17.7135 19.0397 18.2327 19.887 18.2327 20.7327C18.2327 21.7714 17.4233 22.7861 15.9535 23.5589C14.4979 24.3242 12.4677 24.8071 10.2128 24.8071C7.95785 24.8071 5.92768 24.3242 4.47213 23.5589C3.00234 22.7861 2.19286 21.7714 2.19286 20.7327C2.19286 19.887 2.71208 19.0397 3.81053 18.2974L3.81064 18.2973C4.15184 18.0665 4.24199 17.6028 4.01111 17.261L4.01088 17.2606C3.78021 16.9201 3.31706 16.8294 2.97482 17.0602ZM6.29211 17.551L6.29194 17.551C4.74859 18.1264 3.76815 19.0763 3.76815 20.2943C3.76815 21.3506 4.53459 22.2 5.67103 22.7689C6.81541 23.3417 8.40093 23.6702 10.2128 23.6702C12.0247 23.6702 13.6102 23.3417 14.7546 22.7689C15.891 22.2 16.6574 21.3506 16.6574 20.2943C16.6574 19.0763 15.677 18.1267 14.134 17.5511L14.1338 17.551C13.749 17.4078 13.3182 17.6023 13.1737 17.9894C13.1648 18.0132 13.1573 18.037 13.151 18.061C13.1577 17.7574 13.2587 17.3656 13.4274 16.9828C13.602 16.5864 13.8331 16.2362 14.0613 16.0272L14.0613 16.0272L14.0628 16.0257C14.2094 15.8895 15.3083 14.8034 15.3083 12.8426C15.3083 10.0145 13.0161 7.7125 10.1955 7.7125C7.38775 7.7125 5.10833 10.0163 5.10833 12.8426C5.10833 14.8161 6.21606 15.8966 6.3642 16.0324L6.38119 16.048L6.38153 16.0482C6.60354 16.2569 6.82765 16.5987 6.9982 16.9851C7.16654 17.3664 7.26757 17.757 7.27461 18.0597C7.26838 18.0363 7.26096 18.0129 7.25231 17.9898C7.10811 17.6021 6.67663 17.4079 6.29211 17.551ZM13.1506 18.9792V18.4387C13.21 18.6659 13.3754 18.8616 13.612 18.9498C14.1443 19.1485 14.5427 19.3828 14.8028 19.6248C15.0628 19.8666 15.1646 20.0954 15.1646 20.2946C15.1646 20.4574 15.0868 20.6551 14.8817 20.873C14.677 21.0905 14.3606 21.3105 13.9306 21.5069C13.0714 21.8994 11.8032 22.1777 10.2128 22.1777C8.62243 22.1777 7.3542 21.8994 6.49504 21.5069C6.06498 21.3105 5.7486 21.0905 5.54388 20.873C5.33885 20.6551 5.26101 20.4574 5.26101 20.2946C5.26101 20.0954 5.36278 19.8666 5.62277 19.6248C5.88293 19.3828 6.28139 19.1485 6.81384 18.9498C7.05031 18.8617 7.21538 18.6666 7.275 18.44V18.9792C7.275 20.5993 8.59228 21.9173 10.2128 21.9173C11.8333 21.9173 13.1506 20.5996 13.1506 18.9792ZM6.83661 4.07619C6.83661 5.93829 8.35096 7.45268 10.2128 7.45268C12.0746 7.45268 13.589 5.93829 13.589 4.07619C13.589 2.21437 12.0746 0.7 10.2128 0.7C8.35098 0.7 6.83661 2.21437 6.83661 4.07619ZM8.32946 4.07619C8.32946 3.03801 9.17461 2.19286 10.2128 2.19286C11.251 2.19286 12.0961 3.03801 12.0961 4.07619C12.0961 5.1147 11.251 5.95982 10.2128 5.95982C9.17464 5.95982 8.32946 5.1147 8.32946 4.07619Z" fill="#252427" stroke="#252427" stroke-width="0.6"/>
</svg>
