<svg width="17" height="27" viewBox="0 0 17 27" fill="none" xmlns="http://www.w3.org/2000/svg">
<path d="M8.6022 11.3633C6.52174 11.3633 4.52649 12.1897 3.05538 13.6608C1.58427 15.132 0.757813 17.1272 0.757812 19.2077V21.1209C0.757812 21.7129 0.992984 22.2807 1.41159 22.6993C1.8302 23.1179 2.39795 23.3531 2.98996 23.3531H3.18128C3.39082 24.114 3.84439 24.7851 4.47232 25.2632C5.10025 25.7414 5.8678 26.0001 6.65705 25.9998H10.5474C11.3366 26.0001 12.1042 25.7414 12.7321 25.2632C13.36 24.7851 13.8136 24.114 14.0231 23.3531H14.2463C14.8383 23.3531 15.4061 23.1179 15.8247 22.6993C16.2433 22.2807 16.4785 21.7129 16.4785 21.1209V19.2077C16.47 17.1243 15.6365 15.1291 14.1603 13.6589C12.6841 12.1887 10.6856 11.3633 8.6022 11.3633ZM14.5333 21.1209C14.5333 21.2055 14.4997 21.2866 14.4399 21.3464C14.3801 21.4062 14.299 21.4398 14.2144 21.4398H13.194C12.9403 21.4398 12.697 21.5406 12.5176 21.72C12.3382 21.8994 12.2374 22.1427 12.2374 22.3964C12.2374 22.8447 12.0593 23.2745 11.7424 23.5915C11.4255 23.9084 10.9956 24.0865 10.5474 24.0865H6.65705C6.20882 24.0865 5.77895 23.9084 5.462 23.5915C5.14505 23.2745 4.967 22.8447 4.967 22.3964C4.967 22.1427 4.86621 21.8994 4.68681 21.72C4.5074 21.5406 4.26408 21.4398 4.01036 21.4398H2.98996C2.90538 21.4398 2.82428 21.4062 2.76448 21.3464C2.70467 21.2866 2.67108 21.2055 2.67108 21.1209V19.2077C2.67108 17.6346 3.29596 16.126 4.40826 15.0137C5.52056 13.9014 7.02917 13.2765 8.6022 13.2765C10.1752 13.2765 11.6838 13.9014 12.7961 15.0137C13.9084 16.126 14.5333 17.6346 14.5333 19.2077V21.1209Z" fill="#252427" stroke="black" stroke-width="0.2"/>
<path d="M13.1629 5.55995C13.1629 4.65808 12.8954 3.77646 12.3944 3.02658C11.8933 2.2767 11.1812 1.69224 10.3479 1.34711C9.51472 1.00198 8.59786 0.911674 7.71332 1.08762C6.82877 1.26357 6.01627 1.69786 5.37855 2.33558C4.74083 2.9733 4.30654 3.78581 4.13059 4.67035C3.95464 5.55489 4.04494 6.47175 4.39008 7.30497C4.73521 8.13819 5.31967 8.85036 6.06955 9.35141C6.81943 9.85246 7.70105 10.1199 8.60292 10.1199C9.81229 10.1199 10.9721 9.63948 11.8273 8.78432C12.6824 7.92917 13.1629 6.76932 13.1629 5.55995ZM5.95624 5.55995C5.95624 5.03649 6.11146 4.52478 6.40228 4.08953C6.6931 3.65429 7.10646 3.31505 7.59008 3.11473C8.0737 2.91441 8.60586 2.862 9.11926 2.96412C9.63267 3.06625 10.1043 3.31832 10.4744 3.68846C10.8446 4.05861 11.0966 4.5302 11.1987 5.04361C11.3009 5.55702 11.2485 6.08917 11.0481 6.57279C10.8478 7.05641 10.5086 7.46977 10.0733 7.76059C9.63809 8.05141 9.12638 8.20663 8.60292 8.20663C7.90098 8.20663 7.22778 7.92779 6.73143 7.43144C6.23508 6.93509 5.95624 6.2619 5.95624 5.55995Z" fill="#252427" stroke="black" stroke-width="0.2"/>
</svg>
