<svg width="17" height="27" viewBox="0 0 17 27" fill="none" xmlns="http://www.w3.org/2000/svg">
<path d="M8.60232 11.3636C6.52186 11.3636 4.52661 12.19 3.0555 13.6612C1.5844 15.1323 0.757935 17.1275 0.757935 19.208V21.1212C0.757935 21.7132 0.993106 22.281 1.41171 22.6996C1.83032 23.1182 2.39808 23.3534 2.99008 23.3534H3.1814C3.39094 24.1143 3.84451 24.7854 4.47244 25.2635C5.10037 25.7417 5.86792 26.0004 6.65717 26.0001H10.5475C11.3367 26.0004 12.1043 25.7417 12.7322 25.2635C13.3601 24.7854 13.8137 24.1143 14.0232 23.3534H14.2465C14.8385 23.3534 15.4062 23.1182 15.8248 22.6996C16.2434 22.281 16.4786 21.7132 16.4786 21.1212V19.208C16.4702 17.1246 15.6366 15.1294 14.1604 13.6592C12.6843 12.189 10.6857 11.3636 8.60232 11.3636V11.3636ZM14.5334 21.1212C14.5334 21.2058 14.4998 21.2869 14.44 21.3467C14.3802 21.4065 14.2991 21.4401 14.2146 21.4401H13.1942C12.9404 21.4401 12.6971 21.5409 12.5177 21.7203C12.3383 21.8997 12.2375 22.143 12.2375 22.3968C12.2375 22.845 12.0595 23.2749 11.7425 23.5918C11.4256 23.9087 10.9957 24.0868 10.5475 24.0868H6.65717C6.20894 24.0868 5.77907 23.9087 5.46212 23.5918C5.14518 23.2749 4.96712 22.845 4.96712 22.3968C4.96712 22.143 4.86633 21.8997 4.68693 21.7203C4.50752 21.5409 4.2642 21.4401 4.01049 21.4401H2.99008C2.90551 21.4401 2.8244 21.4065 2.7646 21.3467C2.7048 21.2869 2.6712 21.2058 2.6712 21.1212V19.208C2.6712 17.6349 3.29608 16.1263 4.40839 15.014C5.52069 13.9017 7.02929 13.2769 8.60232 13.2769C10.1754 13.2769 11.684 13.9017 12.7963 15.014C13.9086 16.1263 14.5334 17.6349 14.5334 19.208V21.1212Z" fill="#252427" stroke="black" stroke-width="0.2"/>
<path d="M13.1623 5.56001C13.1623 4.65814 12.8948 3.77652 12.3938 3.02664C11.8927 2.27676 11.1805 1.6923 10.3473 1.34717C9.5141 1.00204 8.59725 0.911735 7.71271 1.08768C6.82816 1.26363 6.01566 1.69792 5.37794 2.33564C4.74022 2.97336 4.30593 3.78587 4.12998 4.67041C3.95403 5.55495 4.04433 6.47181 4.38947 7.30503C4.7346 8.13825 5.31906 8.85042 6.06894 9.35147C6.81882 9.85253 7.70044 10.12 8.60231 10.12C9.81168 10.12 10.9715 9.63954 11.8267 8.78438C12.6818 7.92923 13.1623 6.76939 13.1623 5.56001ZM5.95563 5.56001C5.95563 5.03655 6.11085 4.52484 6.40167 4.08959C6.69249 3.65435 7.10585 3.31512 7.58947 3.11479C8.07309 2.91447 8.60525 2.86206 9.11865 2.96418C9.63206 3.06631 10.1037 3.31838 10.4738 3.68852C10.8439 4.05867 11.096 4.53026 11.1981 5.04367C11.3003 5.55708 11.2478 6.08924 11.0475 6.57285C10.8472 7.05647 10.508 7.46983 10.0727 7.76065C9.63748 8.05147 9.12577 8.2067 8.60231 8.2067C7.90037 8.2067 7.22717 7.92785 6.73082 7.4315C6.23447 6.93515 5.95563 6.26196 5.95563 5.56001V5.56001Z" fill="#252427" stroke="black" stroke-width="0.2"/>
</svg>
