<svg width="116" height="711" viewBox="0 0 116 711" fill="none" xmlns="http://www.w3.org/2000/svg">
<path d="M81.5406 710.852C80.7342 710.747 79.9972 710.341 79.4779 709.716C78.9585 709.09 78.6952 708.291 78.741 707.479L78.741 689.69C78.7098 688.879 78.9779 688.085 79.4941 687.459C80.0103 686.833 80.7387 686.419 81.5405 686.295C88.4403 686.008 91.9673 680.409 91.9673 674.149C91.9673 667.888 87.5585 662.047 81.0776 662.047C73.8693 662.047 69.5266 668.66 69.0637 674.215C68.9756 680.243 67.6632 686.19 65.206 691.696C59.4525 703.864 49.18 710.918 35.4026 710.918C13.3586 710.918 -7.84347e-07 692.974 -1.60435e-06 674.215C-2.48601e-06 654.045 13.6232 638.173 33.4848 637.864C34.2857 638.022 35.0028 638.464 35.5049 639.107C36.0069 639.751 36.2601 640.554 36.2182 641.369L36.2182 658.784C36.2068 659.586 35.9336 660.363 35.4402 660.996C34.9467 661.628 34.2601 662.083 33.4848 662.289C26.8716 662.62 23.3886 667.91 23.3886 674.149C23.3886 680.387 27.4006 686.295 35.4026 686.295C42.4566 686.295 46.138 680.365 46.138 674.105C46.254 668.141 47.5972 662.266 50.0838 656.844C55.8373 644.191 67.3883 637.468 81.1658 637.468C103.21 637.468 115.444 655.257 115.444 674.149C114.871 694.495 102.989 710.543 81.5406 710.852Z" fill="#231F20"/>
<path d="M113.747 628.649C113.747 631.537 111.83 632.661 109.912 631.868L3.79221 589.301C3.20729 588.96 2.72474 588.469 2.39519 587.878C2.06565 587.287 1.90127 586.618 1.91931 585.942C1.93734 585.265 2.13714 584.606 2.49771 584.034C2.85828 583.461 3.36635 582.996 3.96857 582.688L110.022 540.385C110.47 540.189 110.961 540.116 111.447 540.173C111.932 540.23 112.393 540.415 112.784 540.708C113.174 541.002 113.479 541.395 113.668 541.845C113.856 542.296 113.922 542.789 113.858 543.273L113.858 562.848C113.858 563.664 113.064 565.581 111.94 565.736L112.094 565.736L61.1065 586.193L111.984 606.385L111.808 606.385C112.384 606.697 112.867 607.158 113.204 607.72C113.541 608.283 113.721 608.925 113.725 609.581L113.747 628.649Z" fill="#231F20"/>
<path d="M111.035 434.795C111.839 434.889 112.574 435.295 113.081 435.926C113.588 436.557 113.827 437.362 113.747 438.167L113.747 456.111C113.737 457.126 113.334 458.098 112.622 458.823C89.2338 475.179 69.2179 489.111 45.675 505.534L111.035 505.534C111.824 505.653 112.539 506.063 113.041 506.683C113.542 507.303 113.794 508.088 113.747 508.884L113.747 526.916C113.795 527.715 113.544 528.503 113.042 529.126C112.541 529.75 111.826 530.164 111.035 530.289L4.49687 530.289C3.67052 530.211 2.90644 529.816 2.36421 529.187C1.82199 528.559 1.54355 527.745 1.58707 526.916L1.58707 508.818C1.60031 507.797 2.00236 506.82 2.7113 506.085C25.8354 490.103 46.3142 475.333 69.5265 459.241L4.49687 459.241C4.07417 459.217 3.66088 459.107 3.28234 458.917C2.9038 458.728 2.568 458.463 2.29553 458.139C2.02307 457.814 1.81968 457.438 1.69786 457.033C1.57603 456.627 1.53833 456.201 1.58707 455.781L1.58706 438.145C1.55094 437.733 1.59737 437.318 1.72363 436.925C1.84989 436.531 2.05345 436.166 2.32237 435.852C2.5913 435.538 2.92019 435.281 3.28979 435.096C3.65939 434.91 4.06227 434.8 4.47482 434.773L111.035 434.795Z" fill="#231F20"/>
<path d="M111.035 355.813C111.825 355.937 112.541 356.352 113.042 356.975C113.543 357.599 113.794 358.387 113.746 359.185C113.894 366.642 112.553 374.053 109.802 380.985C107.051 387.917 102.944 394.231 97.723 399.557C92.5019 404.882 86.2709 409.113 79.3948 412.001C72.5187 414.889 65.1355 416.377 57.6775 416.377C50.2194 416.377 42.8362 414.889 35.9601 412.001C29.084 409.113 22.853 404.882 17.6319 399.557C12.4108 394.231 8.30441 387.917 5.5531 380.985C2.80179 374.053 1.46082 366.642 1.60868 359.185C1.56479 358.36 1.8402 357.549 2.37782 356.921C2.91545 356.293 3.67406 355.896 4.49644 355.813L22.1316 355.813C22.954 355.896 23.7126 356.293 24.2502 356.921C24.7878 357.549 25.0632 358.36 25.0194 359.185C25.2407 367.706 28.7808 375.803 34.8854 381.751C40.99 387.699 49.1763 391.028 57.6995 391.028C66.2228 391.028 74.409 387.699 80.5136 381.751C86.6182 375.803 90.1583 367.706 90.3796 359.185C90.3412 358.361 90.6185 357.553 91.1551 356.927C91.6917 356.3 92.4472 355.902 93.2674 355.813L111.035 355.813Z" fill="#231F20"/>
<path d="M1.58667 255.203C1.51234 254.355 1.7728 253.511 2.31239 252.852C2.85199 252.193 3.62793 251.771 4.47443 251.676L111.035 251.676C111.847 251.817 112.576 252.258 113.079 252.911C113.581 253.564 113.819 254.383 113.746 255.203L113.746 272.993C113.772 273.777 113.511 274.543 113.012 275.148C112.512 275.753 111.809 276.154 111.035 276.277L87.1613 276.277L87.1613 313.752L111.035 313.752C111.847 313.893 112.576 314.333 113.079 314.987C113.581 315.64 113.819 316.458 113.746 317.279L113.746 335.069C113.794 335.867 113.543 336.655 113.042 337.279C112.541 337.902 111.825 338.317 111.035 338.441L4.49647 338.441C3.68592 338.364 2.93499 337.981 2.39503 337.372C1.85507 336.762 1.56621 335.971 1.58667 335.157L1.58667 317.367C1.51234 316.519 1.7728 315.675 2.31239 315.016C2.85199 314.357 3.62793 313.935 4.47443 313.84L28.1937 313.84L28.1937 276.366L4.49647 276.366C3.67012 276.287 2.90604 275.893 2.36381 275.264C1.82159 274.636 1.54316 273.822 1.58667 272.993L1.58667 255.203ZM63.7726 276.277L51.5823 276.277L51.5823 313.752L63.7726 313.752L63.7726 276.277Z" fill="#231F20"/>
<path d="M113.747 238.23C113.747 241.118 111.83 242.242 109.912 241.427L3.79221 198.97C3.20729 198.63 2.72474 198.138 2.39519 197.547C2.06565 196.956 1.90127 196.288 1.91931 195.611C1.93734 194.935 2.13714 194.276 2.49771 193.703C2.85828 193.13 3.36635 192.665 3.96857 192.357L110.022 150.077C110.47 149.881 110.961 149.808 111.447 149.864C111.932 149.921 112.393 150.106 112.784 150.4C113.174 150.694 113.479 151.086 113.668 151.537C113.856 151.987 113.922 152.48 113.858 152.964L113.858 172.341C113.858 173.135 113.064 175.052 111.94 175.229L112.094 175.229L61.1065 195.774L112.05 215.966L111.808 215.966C112.387 216.274 112.872 216.735 113.21 217.298C113.548 217.861 113.726 218.506 113.725 219.162L113.747 238.23Z" fill="#231F20"/>
<path d="M113.746 80.7473C113.714 81.3382 113.556 81.9156 113.282 82.4403C113.008 82.965 112.625 83.425 112.159 83.7893L112.313 83.635L69.3716 110.551L69.3716 115.356L111.035 115.356C111.834 115.451 112.566 115.854 113.072 116.48C113.579 117.106 113.821 117.905 113.746 118.707L113.746 136.496C113.794 137.295 113.543 138.083 113.042 138.707C112.541 139.33 111.825 139.745 111.035 139.869L48.8707 139.869C48.0484 139.785 47.2897 139.388 46.7521 138.76C46.2145 138.133 45.9391 137.322 45.983 136.496L45.983 124.967C42.4559 127.04 39.3698 129.376 35.7325 131.691L22.5062 139.869L4.49626 139.869C3.66991 139.791 2.90583 139.396 2.3636 138.768C1.82138 138.139 1.54295 137.325 1.58646 136.496L1.58646 100.94C1.58646 100.94 1.58646 61.9879 35.3798 61.9879C54.2935 61.9879 62.6261 73.5389 66.2414 84.0319L109.602 57.1823L109.447 57.1823C111.652 55.7494 113.856 57.1823 113.856 59.7614L113.746 80.7473ZM45.8287 97.8754C45.498 92.7613 43.2495 86.6771 35.4019 86.6771C24.9971 86.6771 24.9971 97.8754 24.9971 100.94L24.9971 110.947L45.8287 97.8754Z" fill="#231F20"/>
<path d="M23.3888 12.4999L91.9676 12.4999L91.9676 3.35166C91.92 2.55557 92.1718 1.77044 92.6735 1.15049C93.1752 0.530545 93.8905 0.120588 94.679 0.00100438L111.036 0.00100367C111.824 0.120587 112.539 0.530544 113.041 1.15049C113.543 1.77044 113.794 2.55557 113.747 3.35166L113.747 46.2933C113.795 47.0919 113.544 47.8798 113.043 48.5033C112.541 49.1269 111.826 49.5414 111.036 49.666L94.679 49.666C93.8887 49.5414 93.1731 49.1269 92.6718 48.5033C92.1705 47.8798 91.9194 47.0919 91.9676 46.2933L91.9676 37.0127L23.3888 37.0127L23.3888 45.654C23.437 46.4526 23.1859 47.2406 22.6846 47.8641C22.1833 48.4877 21.4678 48.9021 20.6774 49.0267L4.49719 49.0267C3.67084 48.9483 2.90676 48.5536 2.36453 47.9251C1.82231 47.2966 1.54388 46.4829 1.58739 45.654L1.58739 4.01296C1.53913 3.19188 1.81828 2.38519 2.36369 1.76954C2.9091 1.1539 3.67629 0.779512 4.49719 0.728429L20.6774 0.728428C21.4814 0.822691 22.2162 1.22907 22.7233 1.85996C23.2305 2.49084 23.4695 3.29571 23.3888 4.10115L23.3888 12.4999Z" fill="#231F20"/>
</svg>
