<svg width="140" height="857" viewBox="0 0 140 857" fill="none" xmlns="http://www.w3.org/2000/svg">
<path d="M98.4858 858.576C97.5118 858.45 96.6217 857.96 95.9945 857.204C95.3672 856.448 95.0492 855.483 95.1044 854.502L95.1044 833.016C95.0668 832.037 95.3906 831.078 96.0141 830.322C96.6376 829.566 97.5173 829.065 98.4858 828.916C106.819 828.57 111.079 821.807 111.079 814.245C111.079 806.684 105.754 799.628 97.9267 799.628C89.2203 799.628 83.9752 807.616 83.4161 814.325C83.3097 821.606 81.7245 828.789 78.7567 835.439C71.8076 850.136 59.4003 858.656 42.7597 858.656C16.1347 858.656 -9.47345e-07 836.983 -1.93775e-06 814.325C-3.00264e-06 789.963 16.4542 770.793 40.4434 770.421C41.4107 770.611 42.2769 771.144 42.8833 771.922C43.4896 772.699 43.7955 773.669 43.7448 774.654L43.7448 795.688C43.7311 796.657 43.4011 797.595 42.8051 798.359C42.2091 799.123 41.3798 799.672 40.4434 799.921C32.4559 800.321 28.2491 806.711 28.2491 814.245C28.2491 821.78 33.0949 828.916 42.7597 828.916C51.2797 828.916 55.7261 821.754 55.7261 814.192C55.8662 806.989 57.4885 799.893 60.492 793.345C67.4411 778.062 81.3926 769.941 98.0332 769.941C124.658 769.941 139.435 791.428 139.435 814.245C138.743 838.82 124.392 858.203 98.4858 858.576Z" fill="#9499A2" fill-opacity="0.5"/>
<path d="M137.385 759.291C137.385 762.779 135.069 764.137 132.752 763.179L4.57948 711.766C3.873 711.355 3.29016 710.761 2.89213 710.047C2.49411 709.334 2.29556 708.526 2.31735 707.709C2.33914 706.892 2.58045 706.096 3.01595 705.404C3.45146 704.713 4.06511 704.151 4.79248 703.778L132.885 652.685C133.426 652.448 134.02 652.36 134.606 652.429C135.192 652.497 135.749 652.72 136.221 653.075C136.692 653.43 137.061 653.904 137.289 654.448C137.517 654.993 137.596 655.588 137.518 656.173L137.518 679.816C137.518 680.801 136.56 683.117 135.202 683.304L135.388 683.304L73.8044 708.012L135.255 732.4L135.042 732.4C135.738 732.777 136.321 733.334 136.729 734.013C137.136 734.693 137.354 735.469 137.358 736.261L137.385 759.291Z" fill="#9499A2" fill-opacity="0.5"/>
<path d="M134.11 525.151C135.081 525.265 135.968 525.756 136.581 526.518C137.194 527.28 137.482 528.252 137.385 529.225L137.385 550.898C137.373 552.124 136.886 553.298 136.027 554.172C107.778 573.928 83.6023 590.755 55.1668 610.591L134.11 610.591C135.062 610.735 135.926 611.23 136.532 611.979C137.138 612.728 137.442 613.676 137.385 614.638L137.385 636.417C137.443 637.382 137.14 638.333 136.534 639.086C135.929 639.839 135.064 640.34 134.11 640.491L5.43136 640.491C4.43329 640.396 3.51041 639.919 2.85551 639.16C2.2006 638.401 1.86431 637.418 1.91686 636.417L1.91686 614.558C1.93286 613.325 2.41846 612.144 3.27473 611.256C31.2043 591.953 55.9389 574.115 83.9751 554.678L5.43136 554.678C4.92082 554.649 4.42164 554.516 3.96443 554.287C3.50723 554.058 3.10164 553.738 2.77255 553.346C2.44347 552.955 2.19782 552.5 2.05067 552.011C1.90353 551.521 1.85799 551.006 1.91686 550.498L1.91686 529.198C1.87323 528.701 1.9293 528.199 2.0818 527.724C2.2343 527.248 2.48016 526.808 2.80497 526.429C3.12979 526.049 3.52703 525.739 3.97343 525.515C4.41984 525.291 4.90644 525.158 5.40473 525.125L134.11 525.151Z" fill="#9499A2" fill-opacity="0.5"/>
<path d="M134.11 429.754C135.065 429.904 135.929 430.405 136.534 431.158C137.14 431.911 137.443 432.863 137.385 433.827C137.563 442.834 135.944 451.785 132.621 460.158C129.298 468.53 124.338 476.156 118.032 482.588C111.726 489.021 104.2 494.131 95.8947 497.619C87.5896 501.107 78.6722 502.904 69.6642 502.904C60.6562 502.904 51.7388 501.107 43.4337 497.619C35.1286 494.131 27.6028 489.021 21.2966 482.588C14.9905 476.156 10.0307 468.53 6.70768 460.158C3.38461 451.785 1.76496 442.834 1.94355 433.827C1.89054 432.83 2.22318 431.851 2.87253 431.093C3.52188 430.334 4.43815 429.855 5.43142 429.754L26.7314 429.754C27.7247 429.855 28.6409 430.334 29.2903 431.093C29.9396 431.851 30.2723 432.83 30.2193 433.827C30.4866 444.118 34.7625 453.898 42.1357 461.082C49.5089 468.267 59.3963 472.287 69.6908 472.287C79.9853 472.287 89.8728 468.267 97.246 461.082C104.619 453.898 108.895 444.118 109.162 433.827C109.116 432.832 109.451 431.856 110.099 431.099C110.747 430.342 111.66 429.861 112.65 429.754L134.11 429.754Z" fill="#9499A2" fill-opacity="0.5"/>
<path d="M1.91702 308.237C1.82724 307.212 2.14182 306.193 2.79355 305.397C3.44528 304.601 4.38248 304.092 5.40489 303.977L134.11 303.977C135.091 304.147 135.972 304.679 136.579 305.468C137.185 306.258 137.473 307.246 137.385 308.237L137.385 329.724C137.416 330.67 137.101 331.596 136.498 332.326C135.895 333.057 135.046 333.542 134.11 333.691L105.275 333.691L105.275 378.953L134.11 378.953C135.091 379.123 135.972 379.655 136.579 380.444C137.185 381.234 137.473 382.222 137.385 383.213L137.385 404.7C137.443 405.664 137.14 406.616 136.534 407.369C135.929 408.122 135.065 408.623 134.11 408.773L5.43152 408.773C4.45252 408.679 3.54554 408.218 2.89337 407.481C2.24119 406.745 1.89231 405.789 1.91702 404.806L1.91702 383.32C1.82724 382.295 2.14183 381.276 2.79356 380.48C3.44529 379.684 4.38248 379.174 5.4049 379.06L34.0534 379.06L34.0534 333.797L5.43151 333.797C4.43344 333.703 3.51057 333.226 2.85566 332.467C2.20075 331.708 1.86446 330.725 1.91702 329.724L1.91702 308.237ZM77.0261 333.691L62.3025 333.691L62.3025 378.953L77.0261 378.953L77.0261 333.691Z" fill="#9499A2" fill-opacity="0.5"/>
<path d="M137.385 287.736C137.385 291.224 135.068 292.582 132.752 291.597L4.57941 240.317C3.87294 239.906 3.2901 239.312 2.89207 238.599C2.49405 237.885 2.2955 237.077 2.31729 236.26C2.33908 235.443 2.58039 234.647 3.01589 233.955C3.4514 233.264 4.06504 232.702 4.79242 232.329L132.885 181.263C133.426 181.026 134.02 180.938 134.606 181.006C135.192 181.075 135.749 181.298 136.221 181.653C136.692 182.008 137.061 182.482 137.289 183.026C137.517 183.571 137.596 184.166 137.518 184.751L137.518 208.154C137.518 209.112 136.559 211.429 135.202 211.642L135.388 211.642L73.8044 236.456L135.335 260.845L135.042 260.845C135.742 261.217 136.328 261.773 136.736 262.454C137.144 263.134 137.359 263.912 137.358 264.705L137.385 287.736Z" fill="#9499A2" fill-opacity="0.5"/>
<path d="M137.385 97.5273C137.346 98.2411 137.155 98.9384 136.825 99.5722C136.494 100.206 136.031 100.762 135.468 101.202L135.654 101.015L83.7888 133.524L83.7888 139.329L134.11 139.329C135.076 139.443 135.959 139.93 136.571 140.686C137.183 141.442 137.475 142.407 137.385 143.376L137.385 164.862C137.443 165.827 137.14 166.778 136.534 167.531C135.929 168.284 135.065 168.785 134.11 168.936L59.0276 168.936C58.0343 168.834 57.1181 168.355 56.4687 167.596C55.8194 166.838 55.4867 165.859 55.5397 164.862L55.5397 150.937C51.2797 153.44 47.5523 156.262 43.1591 159.058L27.1841 168.936L5.43153 168.936C4.43345 168.841 3.51058 168.364 2.85568 167.605C2.20077 166.846 1.86448 165.863 1.91703 164.862L1.91703 121.916C1.91703 121.916 1.91703 74.8695 42.7331 74.8695C65.5774 74.8695 75.6416 88.821 80.0081 101.494L132.379 69.0652L132.193 69.0652C134.856 67.3346 137.518 69.0652 137.518 72.1804L137.385 97.5273ZM55.3534 118.215C54.954 112.038 52.2382 104.689 42.7598 104.689C30.1928 104.689 30.1928 118.215 30.1928 121.916L30.1928 134.004L55.3534 118.215Z" fill="#9499A2" fill-opacity="0.5"/>
<path d="M28.249 15.0963L111.079 15.0963L111.079 4.04697C111.022 3.08544 111.326 2.13715 111.932 1.38837C112.538 0.639583 113.402 0.144431 114.354 -1.10038e-06L134.11 -1.96393e-06C135.062 0.14443 135.926 0.639582 136.532 1.38836C137.138 2.13715 137.442 3.08544 137.385 4.04696L137.385 55.9125C137.443 56.877 137.14 57.8286 136.534 58.5818C135.929 59.3349 135.064 59.8356 134.11 59.9861L114.354 59.9861C113.4 59.8356 112.535 59.3349 111.93 58.5818C111.324 57.8286 111.021 56.877 111.079 55.9125L111.079 44.7033L28.249 44.7033L28.249 55.1403C28.3071 56.1049 28.0039 57.0566 27.3984 57.8097C26.7929 58.5629 25.9287 59.0635 24.9741 59.2139L5.43137 59.2139C4.4333 59.1192 3.51042 58.6424 2.85552 57.8833C2.20061 57.1242 1.86432 56.1415 1.91687 55.1403L1.91687 4.84569C1.85859 3.85398 2.19575 2.87965 2.8545 2.13606C3.51325 1.39248 4.43987 0.940288 5.43137 0.878589L24.9741 0.878589C25.9451 0.992442 26.8326 1.48328 27.4452 2.24526C28.0577 3.00725 28.3464 3.97938 28.249 4.95221L28.249 15.0963Z" fill="#9499A2" fill-opacity="0.5"/>
</svg>
