<svg width="183" height="859" viewBox="0 0 183 859" fill="none" xmlns="http://www.w3.org/2000/svg">
<path d="M141.486 858.576C140.512 858.45 139.622 857.96 138.994 857.204C138.367 856.448 138.049 855.483 138.104 854.502L138.104 833.016C138.067 832.037 138.391 831.078 139.014 830.322C139.638 829.566 140.517 829.065 141.486 828.916C149.819 828.57 154.079 821.807 154.079 814.245C154.079 806.684 148.754 799.628 140.927 799.628C132.22 799.628 126.975 807.616 126.416 814.325C126.31 821.606 124.724 828.789 121.757 835.439C114.808 850.136 102.4 858.656 85.7597 858.656C59.1347 858.656 43 836.983 43 814.325C43 789.963 59.4542 770.793 83.4434 770.421C84.4107 770.611 85.2769 771.144 85.8833 771.922C86.4896 772.699 86.7955 773.669 86.7448 774.654L86.7448 795.688C86.7311 796.657 86.4011 797.595 85.8051 798.359C85.2091 799.123 84.3798 799.672 83.4434 799.921C75.4559 800.321 71.2491 806.711 71.2491 814.245C71.2491 821.78 76.0949 828.916 85.7597 828.916C94.2797 828.916 98.7261 821.754 98.7261 814.192C98.8662 806.989 100.489 799.893 103.492 793.345C110.441 778.062 124.393 769.941 141.033 769.941C167.658 769.941 182.435 791.428 182.435 814.245C181.743 838.82 167.392 858.203 141.486 858.576Z" fill="#9499A2" fill-opacity="0.5"/>
<path d="M180.385 759.291C180.385 762.779 178.068 764.137 175.752 763.179L47.5794 711.766C46.8729 711.355 46.2901 710.761 45.8921 710.047C45.494 709.334 45.2955 708.526 45.3173 707.709C45.3391 706.892 45.5804 706.096 46.0159 705.404C46.4514 704.713 47.065 704.151 47.7924 703.778L175.885 652.685C176.426 652.448 177.02 652.36 177.606 652.429C178.192 652.497 178.749 652.72 179.221 653.075C179.692 653.43 180.061 653.904 180.289 654.448C180.517 654.993 180.596 655.588 180.518 656.173L180.518 679.816C180.518 680.801 179.559 683.117 178.202 683.304L178.388 683.304L116.804 708.012L178.255 732.4L178.042 732.4C178.738 732.777 179.321 733.334 179.728 734.013C180.136 734.693 180.353 735.469 180.358 736.261L180.385 759.291Z" fill="#9499A2" fill-opacity="0.5"/>
<path d="M177.11 525.151C178.081 525.265 178.968 525.756 179.581 526.518C180.193 527.28 180.482 528.252 180.385 529.225L180.385 550.898C180.373 552.124 179.886 553.298 179.027 554.172C150.778 573.928 126.602 590.755 98.1668 610.591L177.11 610.591C178.062 610.735 178.926 611.23 179.532 611.979C180.138 612.728 180.442 613.676 180.385 614.638L180.385 636.417C180.443 637.382 180.14 638.333 179.534 639.086C178.929 639.839 178.064 640.34 177.11 640.491L48.4313 640.491C47.4332 640.396 46.5104 639.919 45.8554 639.16C45.2005 638.401 44.8642 637.418 44.9168 636.417L44.9168 614.558C44.9328 613.325 45.4184 612.144 46.2747 611.256C74.2043 591.953 98.9389 574.115 126.975 554.678L48.4313 554.678C47.9208 554.649 47.4216 554.516 46.9644 554.287C46.5072 554.058 46.1016 553.738 45.7725 553.346C45.4434 552.955 45.1978 552.5 45.0506 552.011C44.9035 551.521 44.8579 551.006 44.9168 550.498L44.9168 529.198C44.8732 528.701 44.9292 528.199 45.0817 527.724C45.2342 527.248 45.4801 526.808 45.8049 526.429C46.1297 526.049 46.527 525.739 46.9734 525.515C47.4198 525.291 47.9064 525.158 48.4047 525.125L177.11 525.151Z" fill="#9499A2" fill-opacity="0.5"/>
<path d="M177.11 429.754C178.064 429.904 178.929 430.405 179.534 431.158C180.14 431.911 180.443 432.863 180.385 433.827C180.563 442.834 178.944 451.785 175.621 460.158C172.298 468.53 167.338 476.156 161.032 482.588C154.726 489.021 147.2 494.131 138.895 497.619C130.59 501.107 121.672 502.904 112.664 502.904C103.656 502.904 94.7387 501.107 86.4336 497.619C78.1285 494.131 70.6027 489.021 64.2966 482.588C57.9904 476.156 53.0307 468.53 49.7076 460.158C46.3845 451.785 44.7649 442.834 44.9435 433.827C44.8905 432.83 45.2231 431.851 45.8725 431.093C46.5218 430.334 47.4381 429.855 48.4314 429.754L69.7313 429.754C70.7246 429.855 71.6409 430.334 72.2902 431.093C72.9396 431.851 73.2722 432.83 73.2192 433.827C73.4865 444.118 77.7624 453.898 85.1356 461.082C92.5088 468.267 102.396 472.287 112.691 472.287C122.985 472.287 132.873 468.267 140.246 461.082C147.619 453.898 151.895 444.118 152.162 433.827C152.116 432.832 152.451 431.856 153.099 431.099C153.747 430.342 154.659 429.861 155.65 429.754L177.11 429.754Z" fill="#9499A2" fill-opacity="0.5"/>
<path d="M44.9169 308.237C44.8271 307.212 45.1417 306.193 45.7934 305.397C46.4452 304.601 47.3824 304.092 48.4048 303.977L177.11 303.977C178.091 304.147 178.972 304.679 179.578 305.468C180.185 306.258 180.473 307.246 180.385 308.237L180.385 329.724C180.416 330.67 180.1 331.596 179.497 332.326C178.894 333.057 178.045 333.542 177.11 333.691L148.275 333.691L148.275 378.953L177.11 378.953C178.091 379.123 178.972 379.655 179.578 380.444C180.185 381.234 180.473 382.222 180.385 383.213L180.385 404.7C180.443 405.664 180.14 406.616 179.534 407.369C178.929 408.122 178.064 408.623 177.11 408.773L48.4314 408.773C47.4524 408.679 46.5454 408.218 45.8932 407.481C45.2411 406.745 44.8922 405.789 44.9169 404.806L44.9169 383.32C44.8271 382.295 45.1417 381.276 45.7934 380.48C46.4452 379.684 47.3824 379.174 48.4048 379.06L77.0532 379.06L77.0532 333.797L48.4314 333.797C47.4333 333.703 46.5104 333.226 45.8555 332.467C45.2006 331.708 44.8643 330.725 44.9169 329.724L44.9169 308.237ZM120.026 333.691L105.302 333.691L105.302 378.953L120.026 378.953L120.026 333.691Z" fill="#9499A2" fill-opacity="0.5"/>
<path d="M180.385 287.736C180.385 291.224 178.068 292.582 175.752 291.597L47.5794 240.317C46.8729 239.906 46.2901 239.312 45.8921 238.599C45.494 237.885 45.2955 237.077 45.3173 236.26C45.3391 235.443 45.5804 234.647 46.0159 233.955C46.4514 233.264 47.065 232.702 47.7924 232.329L175.885 181.263C176.426 181.026 177.02 180.938 177.606 181.006C178.192 181.075 178.749 181.298 179.221 181.653C179.692 182.008 180.061 182.482 180.289 183.026C180.517 183.571 180.596 184.166 180.518 184.751L180.518 208.154C180.518 209.112 179.559 211.429 178.202 211.642L178.388 211.642L116.804 236.456L178.335 260.845L178.042 260.845C178.742 261.217 179.328 261.773 179.736 262.454C180.144 263.134 180.359 263.912 180.358 264.705L180.385 287.736Z" fill="#9499A2" fill-opacity="0.5"/>
<path d="M180.385 97.5273C180.346 98.2411 180.155 98.9384 179.824 99.5722C179.494 100.206 179.031 100.762 178.468 101.202L178.654 101.015L126.789 133.524L126.789 139.329L177.11 139.329C178.076 139.443 178.959 139.93 179.571 140.686C180.183 141.442 180.475 142.407 180.385 143.376L180.385 164.862C180.443 165.827 180.14 166.778 179.534 167.531C178.929 168.284 178.065 168.785 177.11 168.936L102.028 168.936C101.034 168.834 100.118 168.355 99.4687 167.596C98.8193 166.838 98.4867 165.859 98.5397 164.862L98.5397 150.937C94.2797 153.44 90.5522 156.262 86.1591 159.058L70.1841 168.936L48.4315 168.936C47.4334 168.841 46.5105 168.364 45.8556 167.605C45.2007 166.846 44.8644 165.863 44.917 164.862L44.917 121.916C44.917 121.916 44.917 74.8695 85.7331 74.8695C108.577 74.8695 118.642 88.821 123.008 101.494L175.379 69.0652L175.193 69.0652C177.856 67.3346 180.518 69.0652 180.518 72.1804L180.385 97.5273ZM98.3533 118.215C97.9539 112.038 95.2382 104.689 85.7597 104.689C73.1927 104.689 73.1927 118.215 73.1927 121.916L73.1927 134.004L98.3533 118.215Z" fill="#9499A2" fill-opacity="0.5"/>
<path d="M71.249 15.0963L154.079 15.0963L154.079 4.04697C154.022 3.08544 154.326 2.13715 154.932 1.38837C155.538 0.639583 156.402 0.144431 157.354 -1.10038e-06L177.11 -1.96393e-06C178.062 0.14443 178.926 0.639582 179.532 1.38836C180.138 2.13715 180.442 3.08544 180.385 4.04696L180.385 55.9125C180.443 56.877 180.14 57.8286 179.534 58.5818C178.929 59.3349 178.064 59.8356 177.11 59.9861L157.354 59.9861C156.4 59.8356 155.535 59.3349 154.93 58.5818C154.324 57.8286 154.021 56.877 154.079 55.9125L154.079 44.7033L71.249 44.7033L71.249 55.1403C71.3071 56.1049 71.0039 57.0566 70.3984 57.8097C69.7929 58.5629 68.9287 59.0635 67.9741 59.2139L48.4314 59.2139C47.4333 59.1192 46.5104 58.6424 45.8555 57.8833C45.2006 57.1242 44.8643 56.1415 44.9169 55.1403L44.9169 4.84569C44.8586 3.85398 45.1958 2.87965 45.8545 2.13606C46.5132 1.39248 47.4399 0.940288 48.4314 0.878589L67.9741 0.878589C68.9451 0.992442 69.8326 1.48328 70.4452 2.24526C71.0577 3.00725 71.3464 3.97938 71.249 4.95221L71.249 15.0963Z" fill="#9499A2" fill-opacity="0.5"/>
<path d="M34 347.084L34 340.633L25.2637 340.633L25.2637 337.346L34 332.986L34 325.744L24.2969 330.824C23.1543 328.187 20.3418 326.5 17.0898 326.5L17.0547 326.5C11.6758 326.5 8.63476 329.963 8.63477 336.098L8.63477 347.084L34 347.084ZM20.5879 340.633L13.5039 340.633L13.5039 336.854C13.5039 334.586 14.9102 333.074 17.0371 333.074L17.0723 333.074C19.2168 333.074 20.5879 334.533 20.5879 336.818L20.5879 340.633ZM34.4043 314.811C34.4043 308.711 30.8184 306.303 28.1641 305.723L27.9531 305.67L27.9531 311.295L28.041 311.312C28.832 311.594 29.9746 312.684 29.9746 314.687C29.9746 316.955 28.4453 318.361 25.8613 318.432L25.8613 305.564L24.0332 305.564C18.2324 305.564 14.4531 309.238 14.4531 315.021C14.4531 320.84 18.2676 324.531 24.4199 324.531L24.4375 324.531C30.625 324.531 34.4043 320.857 34.4043 314.811ZM18.8828 314.881C18.8828 313.053 20.043 311.752 22.1875 311.436L22.1875 318.344C20.0781 318.027 18.8828 316.709 18.8828 314.881ZM34.2637 297.391C34.2637 294.895 33.1738 292.996 31.293 291.906L31.293 291.783L34 291.783L34 285.561L20.9395 285.561C17.0547 285.561 14.4531 288.953 14.4531 294.104C14.4531 299.43 17.002 302.611 20.7285 302.91L20.957 302.928L20.957 297.32L20.7812 297.285C19.7969 297.074 19.0234 296.09 19.0234 294.42C19.0234 292.68 19.8848 291.783 21.2734 291.783L22.2227 291.783L22.5039 296.143C22.8379 301.082 24.8594 303.859 28.4629 303.859L28.4805 303.859C31.8203 303.859 34.2637 301.24 34.2637 297.391ZM28.0762 297.742L28.0586 297.742C26.916 297.742 26.1953 296.881 26.0898 295.141L25.8613 291.783L27.1445 291.783C28.7617 291.783 29.957 293.207 29.957 295.211C29.957 296.74 29.2715 297.742 28.0762 297.742ZM34.4043 275.523C34.4043 272.764 33.0156 270.672 30.7305 269.723L30.7305 269.6L34 269.6L34 263.377L8.63476 263.377L8.63476 269.6L18.25 269.6L18.25 269.723C15.8769 270.689 14.4531 272.781 14.4531 275.523C14.4531 280.34 18.0742 283.152 24.4199 283.152L24.4375 283.152C30.7305 283.152 34.4043 280.305 34.4043 275.523ZM29.3418 273.221C29.3418 275.418 27.4609 276.824 24.4375 276.824L24.4199 276.824C21.3613 276.824 19.5332 275.418 19.5332 273.221C19.5332 271.059 21.3789 269.6 24.4199 269.6L24.4375 269.6C27.4785 269.6 29.3418 271.041 29.3418 273.221ZM40.2402 256.732C40.2402 252.074 38.8691 249.051 33.9121 247.486L14.8574 241.387L14.8574 247.961L29.3242 251.371L29.3242 251.529L14.8574 254.957L14.8574 261.848L34 255.256L34.4043 255.396C35.248 255.713 35.6523 256.434 35.6523 257.752C35.6523 258.719 35.5469 259.457 35.459 259.861L39.9766 259.861C40.0996 259.158 40.2402 257.963 40.2402 256.732ZM34 232.51L34 226.059L24.543 226.059L24.543 216.232L19.6035 216.232L19.6035 226.059L13.8203 226.059L13.8203 215.248L8.63476 215.248L8.63476 232.51L34 232.51ZM34.4043 204.068C34.4043 198.039 30.7656 194.277 24.4375 194.277L24.4023 194.277C18.1621 194.277 14.4531 198.109 14.4531 204.068C14.4531 210.01 18.1973 213.859 24.4023 213.859L24.4375 213.859C30.748 213.859 34.4043 210.133 34.4043 204.068ZM29.6758 204.051C29.6758 206.213 27.8125 207.531 24.4375 207.531L24.4023 207.531C21.0977 207.531 19.1816 206.178 19.1816 204.068C19.1816 201.959 21.0976 200.588 24.4023 200.588L24.4375 200.588C27.7949 200.588 29.6758 201.924 29.6758 204.051ZM34 191.869L34 185.629L23.8398 185.629C21.1152 185.629 19.6738 184.205 19.6738 181.586C19.6738 180.848 19.8144 180.127 20.0254 179.6L14.6992 179.6C14.541 180.074 14.4531 180.619 14.4531 181.217C14.4531 183.467 15.8242 184.979 18.25 185.506L18.25 185.629L14.8574 185.629L14.8574 191.869L34 191.869ZM34 162.953L34 156.502L25.2812 156.502L8.63476 147.766L8.63476 154.621L19.1816 159.666L19.1816 159.789L8.63476 164.834L8.63476 171.689L25.2812 162.953L34 162.953ZM34.4043 140.682C34.4043 134.652 30.7656 130.891 24.4375 130.891L24.4023 130.891C18.1621 130.891 14.4531 134.723 14.4531 140.682C14.4531 146.623 18.1973 150.473 24.4023 150.473L24.4375 150.473C30.748 150.473 34.4043 146.746 34.4043 140.682ZM29.6758 140.664C29.6758 142.826 27.8125 144.145 24.4375 144.145L24.4023 144.145C21.0976 144.145 19.1816 142.791 19.1816 140.682C19.1816 138.572 21.0976 137.201 24.4023 137.201L24.4375 137.201C27.7949 137.201 29.6758 138.537 29.6758 140.664ZM34.4043 121.979C34.4043 119.078 33.0332 117.127 30.625 116.16L30.625 116.037L34 116.037L34 109.814L14.8574 109.814L14.8574 116.037L25.7207 116.037C27.8476 116.037 29.3418 117.285 29.3418 119.254C29.3418 121.311 28.041 122.33 25.8437 122.33L14.8574 122.33L14.8574 128.57L27.1797 128.57C31.7148 128.57 34.4043 126.18 34.4043 121.979ZM34 106.791L34 100.551L23.8398 100.551C21.1152 100.551 19.6738 99.127 19.6738 96.5078C19.6738 95.7695 19.8144 95.0488 20.0254 94.5215L14.6992 94.5215C14.541 94.9961 14.4531 95.541 14.4531 96.1387C14.4531 98.3887 15.8242 99.9004 18.25 100.428L18.25 100.551L14.8574 100.551L14.8574 106.791L34 106.791ZM34 79.3164L34 72.8828L13.8203 72.8828L13.8203 65.8867L8.63475 65.8867L8.63475 86.3125L13.8203 86.3125L13.8203 79.3164L34 79.3164ZM34 65.0957L34 58.8555L23.8398 58.8555C21.1152 58.8555 19.6738 57.4316 19.6738 54.8125C19.6738 54.0742 19.8144 53.3535 20.0254 52.8262L14.6992 52.8262C14.541 53.3008 14.4531 53.8457 14.4531 54.4434C14.4531 56.6934 15.8242 58.2051 18.25 58.7324L18.25 58.8555L14.8574 58.8555L14.8574 65.0957L34 65.0957ZM12.8008 47.7637C12.8008 45.9531 11.3945 44.582 9.7246 44.582C8.05467 44.582 6.666 45.9531 6.666 47.7637C6.666 49.5566 8.05467 50.9453 9.7246 50.9453C11.3945 50.9453 12.8008 49.5566 12.8008 47.7637ZM34 50.875L34 44.6523L14.8574 44.6523L14.8574 50.875L34 50.875ZM40.1523 41.6113L40.1523 35.3711L30.7129 35.3711L30.7129 35.248C33.0156 34.2988 34.4043 32.1895 34.4043 29.4297C34.4043 24.6484 30.7305 21.8535 24.4375 21.8535L24.4199 21.8535C18.0918 21.8535 14.4531 24.666 14.4531 29.5C14.4531 32.2246 15.8769 34.2637 18.2676 35.2305L18.2676 35.3711L14.8574 35.3711L14.8574 41.6113L40.1523 41.6113ZM29.3418 31.7852C29.3418 33.9648 27.4785 35.4062 24.4551 35.4062L24.4375 35.4062C21.3789 35.4062 19.5332 33.9473 19.5332 31.7852C19.5332 29.5879 21.3613 28.1816 24.4199 28.1816L24.4375 28.1816C27.4609 28.1816 29.3418 29.5879 29.3418 31.7852ZM25.6152 14.5059L25.6152 9.00391L25.1055 9.00391C23.541 9.00391 22.7148 8.33594 21.3262 5.92773C19.832 3.34375 18.039 2.13086 15.4551 2.13086L15.4199 2.13086C11.2012 2.13086 8.40623 5.62891 8.40624 10.9551C8.40624 16.5801 11.4648 19.9023 15.8769 19.9727L16.0176 19.9727L16.0176 14.2598L15.8945 14.2598C14.3652 14.207 13.1875 13.0469 13.1875 11.3594C13.1875 9.72461 14.1543 8.54687 15.5781 8.54687L15.6133 8.54687C17.125 8.54687 17.8808 9.16211 19.2871 11.5527C20.6933 13.9961 22.3105 14.8047 24.9121 14.541L25.6152 14.5059ZM34.2285 11.6406C34.2285 9.8125 32.8398 8.31836 31.0644 8.31836C29.3066 8.31836 27.918 9.8125 27.918 11.6406C27.918 13.4863 29.3066 14.9629 31.0644 14.9629C32.8398 14.9629 34.2285 13.4863 34.2285 11.6406Z" fill="#9499A2" fill-opacity="0.5"/>
</svg>
